<svg id="Capa_1" enable-background="new 0 0 512 512" height="512" viewBox="0 0 512 512" width="512" xmlns="http://www.w3.org/2000/svg"><g><g><g><g><g><path d="m419.792 54.694h-361.811c-27.88 0-50.481 22.601-50.481 50.481v205.71c0 27.88 22.601 50.481 50.481 50.481h4.776c4.367 0 7.671 3.951 6.897 8.25l-12.438 69.061c-.935 5.193 5.308 8.562 9.135 4.929l81.899-77.744c3.04-2.886 7.073-4.495 11.265-4.495h260.277c27.88 0 50.481-22.601 50.481-50.481v-205.71c0-27.881-22.601-50.482-50.481-50.482z" fill="#e28086"/></g></g></g><g fill="#dd636e"><path d="m419.792 54.694h-63.302c27.88 0 50.481 22.601 50.481 50.481v205.71c0 27.88-22.601 50.481-50.481 50.481h63.302c27.88 0 50.481-22.601 50.481-50.481v-205.71c0-27.88-22.601-50.481-50.481-50.481z"/><path d="m84.948 365.861-17.633 16.738-10.099 56.077c-.935 5.193 5.308 8.562 9.135 4.929l81.899-77.744c3.04-2.886 7.073-4.495 11.265-4.495h-63.302c-4.192 0-8.225 1.609-11.265 4.495z"/></g></g><g><g><g><path d="m504.003 449.517-23.893-54.122c-1.437-3.254-1.526-6.936-.283-10.27 3.932-10.549 5.997-22.007 5.784-33.975-.887-49.915-41.828-90.438-91.749-90.837-51.702-.413-93.694 41.585-93.273 93.288.414 50.815 42.371 92.107 93.186 91.746 12.6-.089 24.599-2.701 35.523-7.35 3.03-1.29 6.428-1.414 9.553-.375l58.343 19.383c4.557 1.513 8.748-3.096 6.809-7.488z" fill="#ffe07d"/></g></g><g><path d="m504.003 449.517-23.893-54.122c-1.437-3.254-1.526-6.937-.283-10.27 3.932-10.549 5.997-22.007 5.784-33.975-.887-49.915-41.828-90.438-91.749-90.837-11.119-.089-21.786 1.789-31.682 5.297 35.352 12.57 61.031 46.124 61.732 85.54.213 11.968-1.853 23.426-5.784 33.975-1.242 3.333-1.154 7.016.283 10.27l18.425 41.735c.68.116 1.355.272 2.016.491l58.343 19.384c4.556 1.513 8.747-3.096 6.808-7.488z" fill="#ffd064"/></g><circle cx="393.455" cy="406.146" r="7.483"/></g><g><path d="m409.071 124.873h-340.369c-4.142 0-7.5 3.358-7.5 7.5s3.358 7.5 7.5 7.5h340.37c4.142 0 7.5-3.358 7.5-7.5s-3.359-7.5-7.501-7.5z"/><path d="m416.571 199.45c0-4.142-3.358-7.5-7.5-7.5h-340.369c-4.142 0-7.5 3.358-7.5 7.5s3.358 7.5 7.5 7.5h340.37c4.141 0 7.499-3.358 7.499-7.5z"/><path d="m68.702 259.027c-4.142 0-7.5 3.358-7.5 7.5s3.358 7.5 7.5 7.5h167.231c4.142 0 7.5-3.358 7.5-7.5s-3.358-7.5-7.5-7.5z"/><path d="m394.166 290.181c-17.564-.373-32.621 12.473-35.045 29.837-.221 1.589-.333 3.212-.333 4.824 0 4.142 3.358 7.5 7.5 7.5s7.5-3.358 7.5-7.5c0-.922.064-1.849.19-2.752 1.374-9.842 9.93-17.121 19.887-16.911 10.252.207 18.699 8.38 19.231 18.607.59 11.374-8.45 20.724-19.64 20.724-4.142 0-7.5 3.358-7.5 7.5v28.408c0 4.142 3.358 7.5 7.5 7.5s7.5-3.358 7.5-7.5v-21.738c16.108-3.597 28.026-18.224 27.12-35.672-.938-18.044-15.832-32.463-33.91-32.827z"/><path d="m510.864 446.488-23.894-54.123c-.643-1.456-.685-3.098-.116-4.621 4.375-11.738 6.48-24.095 6.256-36.728-.961-54.01-45.154-97.771-99.188-98.204-55.931-.415-101.29 44.878-100.833 100.849.447 54.893 45.385 99.524 100.739 99.185 13.315-.095 26.237-2.769 38.407-7.949 1.337-.569 2.848-.624 4.251-.159l58.343 19.383c4.941 1.643 10.219.287 13.754-3.6 3.519-3.87 4.393-9.247 2.281-14.033zm-69.649-15.985c-2.168-.72-4.415-1.079-6.656-1.079-2.799 0-5.587.559-8.199 1.671-10.337 4.399-21.318 6.671-32.639 6.751-46.802.333-85.252-37.456-85.633-84.307-.387-47.48 37.957-85.73 85.012-85.73.232 0 .468.001.701.002 45.677.365 83.499 37.81 84.31 83.471.191 10.747-1.597 21.252-5.313 31.222-1.942 5.21-1.783 10.864.449 15.918l22.103 50.066z"/><path d="m265.502 353.866h-105.987c-6.141 0-11.975 2.328-16.429 6.556l-77.387 73.461 11.335-62.937c1.604-8.903-5.243-17.079-14.278-17.079h-4.776c-23.7 0-42.981-19.281-42.981-42.981v-205.71c0-23.7 19.281-42.981 42.981-42.981h361.811c23.7 0 42.981 19.281 42.981 42.981v156.852c0 4.142 3.358 7.5 7.5 7.5s7.5-3.358 7.5-7.5v-156.853c0-31.971-26.01-57.981-57.981-57.981h-361.81c-31.971 0-57.981 26.01-57.981 57.981v205.71c0 31.97 26.01 57.981 57.981 57.981h4.187l-12.333 68.482c-.996 5.529 1.658 11.036 6.601 13.704 4.921 2.655 10.983 1.88 15.078-2.007l81.899-77.744c1.654-1.57 3.821-2.435 6.102-2.435h105.987c4.142 0 7.5-3.358 7.5-7.5s-3.358-7.5-7.5-7.5z"/></g></g></svg>